<svg width="208" height="52" viewBox="0 0 208 52" fill="none" xmlns="http://www.w3.org/2000/svg">
<path d="M77.4679 44.6578L74.7515 33.1912C74.6114 32.595 74.3635 31.9076 73.9377 31.4672C72.5687 30.0547 70.2188 30.0601 68.8606 31.4779C68.4402 31.9183 68.1384 32.6058 68.0036 33.2019L65.3303 44.6524C65.3196 44.69 65.3519 44.7222 65.3896 44.7222H68.5103C68.5372 44.7222 68.5588 44.7008 68.5695 44.6793L69.3618 41.2742C69.3618 41.2742 69.3942 41.2312 69.4211 41.2312H73.361C73.3879 41.2312 73.4149 41.2527 73.4203 41.2796L74.1533 44.6846C74.1586 44.7115 74.1856 44.733 74.2125 44.733H77.414C77.4517 44.733 77.4787 44.6954 77.4733 44.6632L77.4679 44.6578ZM72.8651 38.7446H69.9924C69.9601 38.7446 69.9385 38.7177 69.9493 38.6855L71.2105 33.014C71.259 32.8153 71.5393 32.8153 71.5932 33.014L72.9136 38.6855C72.919 38.7123 72.8975 38.7446 72.8705 38.7446H72.8651Z" fill="white"/>
<path d="M82.6797 30.0171H79.7746C79.7568 30.0171 79.7423 30.0315 79.7423 30.0493V44.6954C79.7423 44.7132 79.7568 44.7276 79.7746 44.7276H82.6797C82.6975 44.7276 82.712 44.7132 82.712 44.6954V30.0493C82.712 30.0315 82.6975 30.0171 82.6797 30.0171Z" fill="white"/>
<path d="M85.9135 33.7927V46.0434C85.9135 46.226 85.7626 46.3764 85.5794 46.3764H84.1242C84.0864 46.3764 84.0487 46.4087 84.0487 46.4516V48.4603C84.0487 48.4979 84.081 48.5355 84.1242 48.5355H86.6843C87.8862 48.5355 88.8563 47.5634 88.8563 46.3603V33.7981C88.8563 33.7444 88.8132 33.7014 88.7647 33.7014H86.0052C85.9513 33.7014 85.9135 33.7444 85.9135 33.7981V33.7927Z" fill="white"/>
<path d="M132.825 41.1883V30.5058C132.825 30.4521 132.782 30.4092 132.734 30.4092H129.759C129.705 30.4092 129.667 30.4521 129.667 30.5058V42.4343C129.667 43.7018 130.696 44.733 131.963 44.733H137.827V42.1443L133.758 42.1282C133.246 42.1282 132.831 41.7092 132.831 41.1936L132.825 41.1883Z" fill="white"/>
<path d="M88.8617 30.0171H85.7465V32.2782H88.8617V30.0171Z" fill="white"/>
<path d="M100.433 36.5694C100.288 35.9034 99.9914 35.3556 99.5871 34.9206C99.0266 34.3137 98.493 33.927 97.5768 33.7498C97.3989 33.7175 97.2103 33.7014 97.0324 33.7014L96.4342 33.637C95.6203 33.551 94.6125 33.6155 93.7986 33.7014L92.4404 33.9753C92.268 34.0452 92.1871 34.0881 92.1871 34.2278V36.1022C92.1871 36.1451 92.2194 36.1773 92.2626 36.1773L95.9437 36.1559C96.5204 36.1559 97.4151 36.2364 97.4151 37.2246C97.4043 37.1978 97.5822 38.3095 97.1079 38.3042C96.1809 38.2881 94.6556 38.3149 94.6556 38.3149C92.9417 38.4008 92.2949 39.2118 92.2949 39.2118C91.1038 40.2591 91.4811 42.3913 91.4811 42.3913C91.7937 44.7115 93.3836 44.8619 93.3836 44.8619C94.8065 45.2808 96.1862 44.8619 96.1862 44.8619C96.5474 44.7545 96.9085 44.4644 97.0648 44.3302C97.1187 44.2818 97.1941 44.255 97.2696 44.255H97.566C97.566 44.255 97.6091 44.2711 97.6091 44.2979V44.6846C97.6091 44.7169 97.6307 44.7383 97.663 44.7383H100.369C100.428 44.7383 100.476 44.69 100.476 44.6309V36.9346C100.476 36.8165 100.466 36.6929 100.444 36.5802L100.433 36.5694ZM97.4151 41.2366C97.4151 41.4729 97.345 41.7092 97.2103 41.9026C97.0702 42.1013 96.8923 42.2839 96.709 42.4128C96.5096 42.5578 96.2671 42.633 96.0192 42.633H95.6904C95.0167 42.633 94.4669 42.0852 94.4669 41.4085V41.3225C94.5424 40.6243 95.1999 39.9906 95.712 40.0765H97.4151V41.2259V41.2366Z" fill="white"/>
<path d="M148.525 36.5694C148.38 35.9034 148.083 35.3556 147.679 34.9206C147.119 34.3137 146.585 33.927 145.669 33.7498C145.491 33.7175 145.302 33.7014 145.119 33.7014L144.521 33.637C143.707 33.551 142.699 33.6155 141.885 33.7014L140.527 33.9753C140.355 34.0452 140.274 34.0881 140.274 34.2278V36.1022C140.274 36.1451 140.306 36.1773 140.349 36.1773L144.03 36.1559C144.607 36.1559 145.502 36.2364 145.502 37.2246C145.491 37.1978 145.669 38.3095 145.195 38.3042C144.268 38.2881 142.742 38.3149 142.742 38.3149C141.028 38.4008 140.382 39.2118 140.382 39.2118C139.19 40.2591 139.568 42.3913 139.568 42.3913C139.88 44.7115 141.47 44.8619 141.47 44.8619C142.893 45.2808 144.273 44.8619 144.273 44.8619C144.634 44.7545 144.995 44.4644 145.151 44.3302C145.205 44.2818 145.281 44.255 145.356 44.255H145.653C145.653 44.255 145.696 44.2711 145.696 44.2979V44.6846C145.696 44.7169 145.717 44.7383 145.75 44.7383H148.455C148.515 44.7383 148.563 44.69 148.563 44.6309V36.9346C148.563 36.8165 148.552 36.6929 148.531 36.5802L148.525 36.5694ZM145.507 41.2366C145.507 41.4729 145.437 41.7092 145.302 41.9026C145.162 42.1013 144.984 42.2839 144.801 42.4128C144.602 42.5578 144.359 42.633 144.111 42.633H143.782C143.109 42.633 142.559 42.0852 142.559 41.4085V41.3225C142.634 40.6243 143.292 39.9906 143.804 40.0765H145.507V41.2259V41.2366Z" fill="white"/>
<path d="M112.609 36.2096C112.28 35.4362 111.703 34.4909 110.717 33.9753C110.361 33.7874 109.962 33.7014 109.558 33.7014H106.529C106.481 33.7014 106.443 33.6638 106.443 33.6155V30.0601C106.443 30.0117 106.405 29.9741 106.357 29.9741H103.511C103.462 29.9741 103.425 30.0117 103.425 30.0601V44.1637C103.425 44.212 103.457 44.2603 103.505 44.2711C104.136 44.4644 108.345 45.6782 111.078 44.2442C111.078 44.2442 112.485 43.5783 112.954 41.1829C112.97 41.0916 112.98 40.9949 112.98 40.9036V38.1538C112.98 37.4878 112.857 36.8272 112.598 36.2096H112.609ZM109.854 40.8338C109.817 41.5642 109.402 41.9563 109.078 42.1604C108.879 42.2839 108.647 42.343 108.41 42.343H106.626C106.529 42.343 106.448 42.2624 106.448 42.1657V36.317C106.448 36.2364 106.513 36.172 106.594 36.172H108.421C108.836 36.172 109.229 36.3653 109.477 36.7037C109.536 36.7896 109.59 36.8755 109.639 36.9561C109.784 37.2193 109.86 37.5147 109.86 37.8154V40.8338H109.854Z" fill="white"/>
<path d="M176.223 38.1538V40.9036C176.223 40.9949 176.234 41.0916 176.25 41.1829C176.719 43.5783 178.126 44.2442 178.126 44.2442C180.858 45.6729 185.073 44.4644 185.698 44.2711C185.747 44.255 185.779 44.212 185.779 44.1637V30.0601C185.779 30.0117 185.741 29.9741 185.693 29.9741H182.847C182.798 29.9741 182.761 30.0117 182.761 30.0601V33.6155C182.761 33.6638 182.723 33.7014 182.675 33.7014H179.646C179.241 33.7014 178.842 33.7874 178.487 33.9753C177.506 34.4909 176.924 35.4362 176.595 36.2096C176.336 36.8218 176.212 37.4824 176.212 38.1538H176.223ZM179.36 37.8154C179.36 37.5147 179.435 37.2139 179.581 36.9561C179.629 36.8755 179.683 36.7896 179.743 36.7037C179.985 36.3653 180.379 36.172 180.799 36.172H182.626C182.707 36.172 182.772 36.2364 182.772 36.317V42.1657C182.772 42.2624 182.691 42.343 182.594 42.343H180.81C180.573 42.343 180.341 42.2839 180.141 42.1604C179.818 41.9617 179.403 41.5642 179.365 40.8338V37.8154H179.36Z" fill="white"/>
<path d="M115.497 44.7276V33.7712C115.497 33.7283 115.53 33.6961 115.573 33.6961H118.602C118.645 33.6961 118.683 33.7337 118.683 33.7766V34.3191H118.931C118.931 34.3191 119.265 33.5242 120.494 33.5242H121.523C121.523 33.5242 121.566 33.5457 121.566 33.5672V35.941C121.566 35.941 121.555 35.9679 121.539 35.9679C121.124 35.8766 120.343 35.9786 119.809 36.1612C119.809 36.1612 119.362 36.3331 119.017 36.5264C118.774 36.6661 118.618 36.9293 118.618 37.2085V44.7222H115.487L115.497 44.7276Z" fill="white"/>
<path d="M188.592 44.7276V33.7712C188.592 33.7283 188.625 33.6961 188.668 33.6961H191.697C191.74 33.6961 191.778 33.7337 191.778 33.7766V34.3191H192.026C192.026 34.3191 192.36 33.5242 193.589 33.5242H194.618C194.618 33.5242 194.661 33.5457 194.661 33.5672V35.941C194.661 35.941 194.65 35.9679 194.634 35.9679C194.219 35.8766 193.438 35.9786 192.904 36.1612C192.904 36.1612 192.457 36.3331 192.112 36.5264C191.869 36.6661 191.713 36.9293 191.713 37.2085V44.7222H188.582L188.592 44.7276Z" fill="white"/>
<path d="M151.511 33.7175V41.7737C151.511 43.4064 152.832 44.7276 154.465 44.7276H155.155C156.168 44.7276 157.165 44.4805 158.065 44.0079V44.6148C158.065 44.6793 158.114 44.7276 158.178 44.7276H160.9C160.933 44.7276 160.959 44.7007 160.959 44.6685V33.7175C160.959 33.7175 160.949 33.7014 160.943 33.7014H157.866C157.866 33.7014 157.85 33.7122 157.85 33.7175V41.2796C157.85 41.5159 157.726 41.7307 157.526 41.8542C156.734 42.3322 155.742 42.3269 154.955 41.8435L155.273 42.01C155.036 41.8596 154.573 41.4353 154.573 41.156V33.7229C154.573 33.7229 154.567 33.7068 154.557 33.7068H151.533C151.533 33.7068 151.517 33.7175 151.517 33.7229L151.511 33.7175Z" fill="white"/>
<path d="M173.496 44.6148L173.517 36.5587C173.517 34.926 172.202 33.5994 170.569 33.594H169.879C168.866 33.594 167.869 33.8357 166.969 34.303V33.6961C166.969 33.6316 166.92 33.5833 166.856 33.5833H164.134C164.102 33.5779 164.075 33.6048 164.075 33.637L164.048 44.588C164.048 44.588 164.053 44.6041 164.064 44.6041L167.141 44.6148C167.141 44.6148 167.158 44.6041 167.158 44.5987L167.179 37.0367C167.179 36.8004 167.303 36.5855 167.503 36.4674C168.295 35.9894 169.287 36.0001 170.073 36.4835L169.755 36.317C169.993 36.4674 170.456 36.8917 170.456 37.1763L170.435 44.6094C170.435 44.6094 170.44 44.6256 170.451 44.6256L173.474 44.6363C173.474 44.6363 173.49 44.6256 173.49 44.6202L173.496 44.6148Z" fill="white"/>
<path d="M196.235 33.5296C196.176 33.5296 196.127 33.5833 196.143 33.6423C196.397 34.8024 198.342 44.3463 199.905 44.4054H200.493C200.649 44.4054 200.762 44.5504 200.725 44.7061C200.601 45.1949 200.304 46.1079 199.787 46.0649H196.682C196.601 46.0649 196.537 46.1294 196.537 46.2153V47.9984C196.537 48.0951 196.612 48.1756 196.704 48.181C197.367 48.224 199.814 48.369 201.269 48.181C201.323 48.1756 201.371 48.1649 201.42 48.1488C201.749 48.0467 202.843 47.5795 203.365 45.6567L206.734 33.7498C206.766 33.6423 206.686 33.5349 206.572 33.5349H203.543C203.489 33.5349 203.446 33.5725 203.43 33.6262L201.711 41.3333C201.641 41.6126 201.247 41.6179 201.172 41.3387L199.28 33.6531C199.264 33.5833 199.205 33.5349 199.135 33.5349H196.235V33.5296Z" fill="white"/>
<path d="M133.849 4.86043C133.849 5.71439 134.561 6.40184 135.429 6.39647C136.296 6.39647 136.997 5.69827 136.992 4.83895C136.986 3.985 136.28 3.29217 135.412 3.30291C134.545 3.30291 133.844 4.00648 133.849 4.86043Z" fill="white"/>
<path d="M100.692 23.6259C100.697 24.4798 101.403 25.1673 102.271 25.1673C103.139 25.1619 103.84 24.4637 103.834 23.6098C103.834 22.7558 103.123 22.063 102.255 22.0684C101.387 22.0737 100.687 22.7666 100.692 23.6259Z" fill="white"/>
<path d="M78.1902 23.3466C78.1902 24.2005 78.9017 24.888 79.7694 24.8826C80.6371 24.8826 81.3378 24.1791 81.3324 23.3251C81.327 22.4712 80.621 21.7837 79.7532 21.7891C78.8855 21.7891 78.1848 22.4926 78.1902 23.3466Z" fill="white"/>
<path d="M137.552 4.83895C137.552 5.6929 138.264 6.38036 139.131 6.37499C139.999 6.37499 140.7 5.67142 140.694 4.81747C140.694 3.96352 139.983 3.27069 139.115 3.28143C138.247 3.28143 137.547 3.985 137.552 4.83895Z" fill="white"/>
<path d="M185.644 5.7305C185.644 6.58445 186.356 7.27191 187.223 7.26654C188.091 7.26117 188.792 6.56297 188.786 5.70902C188.786 4.85506 188.075 4.16761 187.207 4.17298C186.339 4.17298 185.639 4.87655 185.644 5.7305Z" fill="white"/>
<path d="M207.3 12.879C205.753 10.1399 202.816 10.156 202.816 10.156C198.596 10.0593 196.645 16.2787 196.645 16.2787C196.176 17.3582 195.475 17.6267 195.475 17.6267C193.222 18.0081 189.827 17.1702 189.827 17.1702C191.266 16.0424 192.209 14.0444 192.209 14.0444C193.659 10.9831 190.883 10.1238 190.883 10.1238C187.444 9.00129 185.925 9.81765 184.389 10.344C181.694 11.2624 181.548 13.271 181.548 13.271L184.879 17.1219C184.491 17.7127 182.378 17.5838 181.532 17.6106C179.392 17.6697 177.474 17.1058 177.474 17.1058V10.1238H177.35L174.353 10.1399V14.2056C174.374 16.9554 173.668 17.471 173.668 17.471C172.553 17.9221 170.354 16.8963 170.354 16.8963L170.327 11.5954L167.018 11.6169L166.964 16.2089C166.969 17.6966 165.482 17.5623 165.482 17.5623C164.242 17.5677 162.975 16.703 162.975 16.703V12.3043L159.666 12.3258L159.688 16.1498C159.698 17.6536 158.453 17.5784 158.453 17.5784L156.486 17.6321C154.314 17.7449 152.988 16.8748 152.988 16.8748L153.031 2.52415L149.824 2.54027L149.733 15.6288C149.744 17.4602 148.854 17.385 148.854 17.385H142.317C141.077 17.385 140.91 16.7996 140.91 16.7996L140.861 7.98622L137.655 8.0077V9.35039C134.911 9.87673 132.443 11.4342 132.443 11.4342C129.43 13.3248 130.05 15.9672 130.05 15.9672C130.497 18.8137 134.329 19.2433 134.329 19.2433C135.757 19.3991 137.881 18.615 137.881 18.615C138.528 19.8126 140.145 20.0651 140.145 20.0651L148.046 20.1617C150.924 20.4088 152.115 19.2648 152.115 19.2648C153.797 20.5807 157.23 20.253 157.23 20.253C161.887 20.6558 162.226 18.8405 162.226 18.8405C163.229 20.2369 165.999 20.2853 165.999 20.2853C168.791 20.4947 169.508 18.8996 169.508 18.8996L170.796 19.8073C174.132 21.4561 176.525 19.3883 176.525 19.3883C178.519 20.6182 181.289 20.4195 181.289 20.4195C184.62 20.6021 187.283 19.0231 187.283 19.0231C189.401 20.6612 193.804 20.4303 193.804 20.4303C197.674 20.672 198.633 18.8137 198.633 18.8137C199.738 20.4142 202.783 20.5807 202.783 20.5807C205.888 20.7096 206.971 18.7653 206.971 18.7653C209.068 15.9672 207.311 12.8844 207.311 12.8844L207.3 12.879ZM137.805 15.9135C137.805 15.9135 136.916 16.8104 134.372 16.5633C134.372 16.5633 133.192 16.225 133.122 14.9199C133.122 14.9199 133.3 12.7017 137.784 12.0465L137.805 15.9135ZM189.476 13.8726C189.007 14.8554 187.358 16.1444 187.358 16.1444C186.798 15.7201 184.464 12.7984 184.464 12.7984C185.537 12.1647 187.811 12.17 187.811 12.17C189.983 12.2399 189.476 13.8672 189.476 13.8672V13.8726ZM202.422 17.8523C200.87 17.9006 199.501 16.9554 199.501 16.9554C200.056 13.0616 202.6 12.8468 202.6 12.8468C205.042 13.1368 204.956 16.2303 204.956 16.2303C204.638 17.9006 202.422 17.8523 202.422 17.8523Z" fill="white"/>
<path d="M121.525 2.49805L118.415 2.5159L118.516 19.9867L121.626 19.9688L121.525 2.49805Z" fill="white"/>
<path d="M115.228 2.51878L115.325 19.9899L82.254 19.8986L80.3568 18.8352C80.3568 18.8352 79.3705 19.92 78.3788 19.9254L72.7304 19.8771C72.7304 19.8771 72.5526 24.598 66.7371 24.8343L66.2682 22.1704C66.2682 22.1704 69.9493 22.0093 69.7014 18.1799L69.7176 9.75857H72.9837L72.9191 17.1058L77.0152 17.0843C77.0152 17.0843 78.1524 17.1004 78.1417 15.4301L78.1524 9.79079L81.3809 9.81227L81.2731 16.5687C81.2731 16.5687 81.6288 17.1165 83.2403 17.1917L104.481 17.3367C104.481 17.3367 103.829 15.3012 103.823 14.023C103.823 14.023 103.398 11.7243 101.08 11.9821C101.08 11.9821 98.7033 12.2184 98.353 12.5675L98.3206 9.94654C98.3206 9.94654 103.209 8.12585 105.5 10.5749C105.5 10.5749 106.432 11.3 106.588 12.9703C106.588 12.9703 107.02 16.5311 107.85 17.3206L111.8 17.2991C111.8 17.2991 112.113 17.4173 112.048 16.7244L111.967 2.54026L115.223 2.52415L115.228 2.51878Z" fill="white"/>
<path d="M3.97416 27.595C7.29421 27.595 9.04047 28.5617 10.5819 29.4157C12.0371 30.2213 13.4061 30.9839 16.198 30.9839C18.9898 30.9839 20.3588 30.2213 21.814 29.4157C23.3555 28.5617 25.1017 27.595 28.4218 27.595C31.7418 27.595 33.4881 28.5617 35.0295 29.4157C36.4847 30.2213 37.8537 30.9839 40.6456 30.9839C43.4374 30.9839 44.8064 30.2213 46.2616 29.4157C47.7653 28.5832 49.4685 27.6433 52.6376 27.595C52.6807 26.9881 52.7023 26.3704 52.7023 25.7528C52.6969 11.531 41.1252 0 26.848 0C26.6324 0 26.4168 0 26.2066 0.0107415C26.1096 0.0107415 26.018 0.0161123 25.9209 0.021483C25.8078 0.021483 25.6892 0.0268538 25.576 0.0322246C25.4467 0.0375953 25.3173 0.0483369 25.188 0.0537076L24.9562 0.0698199C24.7999 0.0805614 24.6436 0.0966737 24.4873 0.107415C24.4442 0.107415 24.3957 0.112786 24.3526 0.118157C24.1693 0.134269 23.9914 0.155752 23.8136 0.177235C23.7974 0.177235 23.7812 0.177235 23.7651 0.182606C21.5553 0.445773 19.4372 0.98822 17.4322 1.77235C22.4069 5.45132 22.9405 11.3377 22.9405 11.3377C20.8008 12.5837 17.2328 8.70601 17.2328 8.70601C18.8982 18.2928 13.4277 22.5572 13.4277 22.5572C13.4277 20.3122 10.8137 15.3282 10.8137 15.3282C10.3394 18.3197 4.63171 24.5551 4.63171 24.5551C6.49654 18.1961 3.33279 15.4356 3.20883 15.3335C2.14706 17.7128 1.44101 20.28 1.14458 22.9761V23.0298C1.11763 23.2232 1.10146 23.4165 1.0853 23.6099C1.0853 23.6475 1.07991 23.6797 1.07452 23.7173C1.05835 23.8945 1.04757 24.0771 1.03679 24.2544C1.03679 24.3027 1.0314 24.351 1.02601 24.3994C1.01523 24.5712 1.00984 24.7485 1.00445 24.9257V25.0815C0.993671 25.307 0.988281 25.538 0.988281 25.7635H0.999061C0.999061 26.4832 1.0314 27.1922 1.0853 27.8957C1.90453 27.7131 2.84772 27.6003 3.97416 27.6003" fill="white"/>
<path d="M16.1926 39.2871C18.9845 39.2871 20.3534 38.5245 21.8087 37.7189C23.3501 36.8649 25.0964 35.8982 28.4164 35.8982C31.7364 35.8982 33.4827 36.8649 35.0242 37.7189C36.4794 38.5245 37.8483 39.2871 40.6402 39.2871C43.4321 39.2871 44.801 38.5245 46.2562 37.7189C47.3881 37.0905 48.6385 36.403 50.541 36.0808C51.4303 34.056 52.0717 31.8916 52.4113 29.6359C49.9212 29.7111 48.6223 30.4307 47.2479 31.1934C45.7065 32.0473 43.9602 33.0141 40.6402 33.0141C37.3202 33.0141 35.5739 32.0473 34.0325 31.1934C32.5772 30.3878 31.2083 29.6251 28.4164 29.6251C25.6245 29.6251 24.2556 30.3878 22.8004 31.1934C21.2589 32.0473 19.5126 33.0141 16.1926 33.0141C12.8726 33.0141 11.1263 32.0473 9.58485 31.1934C8.13503 30.3878 6.76066 29.6251 3.96881 29.6251C2.91243 29.6251 2.06086 29.7325 1.33325 29.9151C1.6728 32.0151 2.27106 34.0292 3.09029 35.925C3.37055 35.9089 3.66159 35.8982 3.96881 35.8982C7.28885 35.8982 9.03511 36.8649 10.5766 37.7189C12.0264 38.5245 13.4007 39.2871 16.1926 39.2871Z" fill="white"/>
<path d="M47.2424 39.4966C45.701 40.3505 43.9547 41.3173 40.6347 41.3173C37.3147 41.3173 35.5684 40.3505 34.0269 39.4966C32.5717 38.691 31.2028 37.9283 28.4109 37.9283C25.619 37.9283 24.2501 38.691 22.7948 39.4966C21.2534 40.3505 19.5071 41.3173 16.1871 41.3173C12.8671 41.3173 11.1208 40.3505 9.57935 39.4966C8.1457 38.7017 6.78211 37.9498 4.05493 37.9337C8.41518 46.0167 16.9794 51.5163 26.8371 51.5163C36.6948 51.5163 44.8602 46.2691 49.3121 38.4922C48.5414 38.7715 47.8946 39.1314 47.2371 39.4966" fill="white"/>
</svg>
