<svg id="Layer_1" data-name="Layer 1" xmlns="http://www.w3.org/2000/svg" viewBox="0 0 201.09 206.09"><defs><style>.cls-1{fill:#fff;opacity:0.48;}.cls-2{fill:none;stroke:#fff;stroke-miterlimit:10;}</style></defs><title>db numbers icon</title><path class="cls-1" d="M190.9,103.05A93.65,93.65,0,1,1,97.25,9.39,93.65,93.65,0,0,1,190.9,103.05ZM97.25,42.8a60.25,60.25,0,1,0,60.25,60.25A60.25,60.25,0,0,0,97.25,42.8Z"/><path class="cls-2" d="M84.18,110.84s14.57-7.29,14.07-29c0,0,6.29-3,9.1,4.8,0,0,2.16,10.83-1.15,17.83l18-.78s13.08,2,5.3,11.92c0,0,4.8,4.47-1.49,8.94,0,0,3,6-3,9.1,0,0,1.16,5.3-3.48,7.29H90.47l-6.29-2Z"/><rect class="cls-2" x="62.49" y="108.85" width="21.02" height="32.12"/><circle class="cls-2" cx="68.79" cy="114.63" r="2.65"/><polygon class="cls-2" points="84.18 65.06 86.49 72.16 93.96 72.16 87.91 76.55 90.22 83.66 84.18 79.27 78.14 83.66 80.44 76.55 74.4 72.16 81.87 72.16 84.18 65.06"/><polygon class="cls-2" points="102.67 54.02 104.98 61.13 112.45 61.13 106.41 65.52 108.71 72.62 102.67 68.23 96.63 72.62 98.94 65.52 92.89 61.13 100.36 61.13 102.67 54.02"/><polygon class="cls-2" points="120.43 65.06 122.74 72.16 130.21 72.16 124.16 76.55 126.47 83.66 120.43 79.27 114.38 83.66 116.69 76.55 110.65 72.16 118.12 72.16 120.43 65.06"/></svg>