<svg id="Layer_1" data-name="Layer 1" xmlns="http://www.w3.org/2000/svg" viewBox="0 0 201.09 206.09"><defs><style>.cls-1,.cls-3{fill:#fff;}.cls-1{opacity:0.48;}.cls-2{fill:none;stroke:#fff;stroke-miterlimit:10;}</style></defs><title>db numbers icon</title><path class="cls-1" d="M196.24,103.05a95.7,95.7,0,1,1-95.7-95.7A95.7,95.7,0,0,1,196.24,103.05Zm-95.7-61.57a61.57,61.57,0,1,0,61.57,61.57A61.57,61.57,0,0,0,100.54,41.48Z"/><circle class="cls-2" cx="102.84" cy="86.38" r="15.1"/><polygon class="cls-3" points="93.56 90.05 101.27 94.61 113.29 79.28 100.8 91.9 93.56 90.05"/><circle class="cls-2" cx="80.28" cy="79.54" r="6.35"/><polygon class="cls-3" points="76.14 80.84 79.37 82.76 84.43 76.32 79.18 81.62 76.14 80.84"/><circle class="cls-2" cx="78.76" cy="96.78" r="8.98"/><polygon class="cls-3" points="73.25 98.97 77.83 101.67 84.97 92.56 77.55 100.06 73.25 98.97"/><path class="cls-2" d="M72.44,117.7s6.63-9,15-10.5H109.1s6.55,1,6.78,9.47a.33.33,0,0,0,.56.22L128,105.1s5.81-5.33,12.11,4.2l-20.47,21.27a13.81,13.81,0,0,1-10,4.25H72.44Z"/><line class="cls-2" x1="90.17" y1="118.82" x2="116.05" y2="116.95"/><rect class="cls-2" x="60.98" y="117.7" width="11.47" height="17.12"/><line class="cls-2" x1="137.12" y1="105.76" x2="117.94" y2="125.02"/></svg>