<svg id="Layer_1" data-name="Layer 1" xmlns="http://www.w3.org/2000/svg" viewBox="0 0 201.09 206.09"><defs><style>.cls-1{fill:#fff;opacity:0.48;}.cls-2{fill:none;stroke:#fff;stroke-miterlimit:10;}</style></defs><title>db numbers icon</title><path class="cls-1" d="M196.8,104.05a95.7,95.7,0,1,1-95.7-95.7A95.7,95.7,0,0,1,196.8,104.05ZM101.1,42.48a61.57,61.57,0,1,0,61.57,61.57A61.57,61.57,0,0,0,101.1,42.48Z"/><polygon class="cls-2" points="55.7 75.69 77.79 88.03 71.46 113.7 55.7 107.41 55.7 75.69"/><path class="cls-2" d="M99.56,89.5s-7.42-4.66-22.64,2L72.13,111l4.2,1.41"/><ellipse class="cls-2" cx="80.36" cy="114.08" rx="7.25" ry="4.33" transform="translate(-59.08 108.92) rotate(-52.72)"/><ellipse class="cls-2" cx="86.37" cy="120.41" rx="7.25" ry="4.33" transform="translate(-61.75 116.2) rotate(-52.72)"/><ellipse class="cls-2" cx="92.72" cy="126.31" rx="7.25" ry="4.33" transform="matrix(0.61, -0.8, 0.8, 0.61, -63.95, 123.58)"/><ellipse class="cls-2" cx="99.09" cy="132.55" rx="7.25" ry="4.33" transform="translate(-66.4 131.11) rotate(-52.72)"/><polygon class="cls-2" points="124.34 86.49 129.9 110.1 130.83 114.08 146.51 108.91 146.51 76.09 124.34 86.49"/><path class="cls-2" d="M105.25,130.84s6.78.81,6.89-3.67a4.41,4.41,0,0,0-1.27-3.16l-10.58-11"/><path class="cls-2" d="M111.5,124.59s6.78.81,6.89-3.67a4.41,4.41,0,0,0-1.27-3.16l-10.58-11"/><path class="cls-2" d="M117.57,118.52s6.78.81,6.9-3.67a4.43,4.43,0,0,0-1.27-3.17l-10.58-11-2.68-2.68-10.85,4.77s-3.62,2-6.37-1.87c0,0-2.66-3.25,2.13-7.15l8.85-7,21.8,4.6,4.55,19.33-5.31,3"/></svg>