<svg id="Layer_1" data-name="Layer 1" xmlns="http://www.w3.org/2000/svg" viewBox="0 0 201.09 206.09"><defs><style>.cls-1{fill:#fff;opacity:0.48;}.cls-2{fill:none;stroke:#fff;stroke-miterlimit:10;}</style></defs><title>db numbers icon</title><path class="cls-1" d="M196,104.05A94.68,94.68,0,1,1,101.34,9.37,94.68,94.68,0,0,1,196,104.05ZM101.34,43.14a60.91,60.91,0,1,0,60.9,60.91A60.91,60.91,0,0,0,101.34,43.14Z"/><path class="cls-2" d="M86.74,66.15l.06-.06a9.94,9.94,0,0,1,14.83.86l1.7,2.15,1.27-1.71a9.93,9.93,0,0,1,14.94-1.22h0a6.38,6.38,0,0,1,.72,8.31L103.94,97,86.25,74.62A6.38,6.38,0,0,1,86.74,66.15Z"/><path class="cls-2" d="M70.8,116.29s7.63-10.41,17.3-12.09H113s7.54,1.14,7.81,10.91a.37.37,0,0,0,.64.25l13.32-13.58s6.69-6.14,13.95,4.84l-23.58,24.51A15.93,15.93,0,0,1,113.69,136H70.8Z"/><line class="cls-2" x1="91.22" y1="117.59" x2="121.03" y2="115.43"/><rect class="cls-2" x="57.59" y="116.29" width="13.21" height="19.72"/><line class="cls-2" x1="145.3" y1="102.54" x2="123.21" y2="124.74"/></svg>