<svg version="1.1" id="Layer_1" xmlns="http://www.w3.org/2000/svg" xmlns:xlink="http://www.w3.org/1999/xlink" x="0px" y="0px"
	 viewBox="0 0 233.4 226.7" style="enable-background:new 0 0 233.4 226.7;" xml:space="preserve">
<path class="st0" d="M3.9,124L3.9,124c0-18.2,4.2-36.2,12.6-52.3C29.2,47.1,53.6,15.9,97.6,4.4c6.6-1.7,13.4-2.7,20.2-3l4.5-0.2
	c22.7-1,45.1,6.7,62,22c14.3,13,28.7,33.3,38.3,65.3c0,0,9.2,22.5,6.6,62.7c-1.1,18-8.4,35.2-20.9,48.2
	c-15.8,16.4-43.6,31.2-91.5,24.4c0,0-85.6-10.9-109.6-80.2C4.9,137.3,3.9,130.7,3.9,124z"/>
</svg>